<?xml version="1.0" standalone="no"?>
<!DOCTYPE svg PUBLIC "-//W3C//DTD SVG 20010904//EN"
 "http://www.w3.org/TR/2001/REC-SVG-20010904/DTD/svg10.dtd">
<svg version="1.0" xmlns="http://www.w3.org/2000/svg"
 width="600.000000pt" height="600.000000pt" viewBox="0 0 600.000000 600.000000"
 preserveAspectRatio="xMidYMid meet">
<metadata>
Created by potrace 1.11, written by Peter Selinger 2001-2013
</metadata>
<g transform="translate(0.000000,600.000000) scale(0.100000,-0.100000)"
fill="#000000" stroke="none">
<path d="M890 5528 c-1 -7 -1 -643 -1 -1413 -1 -1487 -1 -1480 48 -1665 65
-249 249 -514 478 -692 62 -48 88 -66 146 -103 79 -50 296 -144 367 -160 24
-5 33 -17 60 -83 166 -405 551 -727 1012 -847 76 -20 78 -20 195 -41 98 -17
359 -25 440 -13 27 4 68 10 90 13 105 14 250 53 400 109 52 20 184 90 255 134
323 206 553 534 626 893 18 88 24 290 12 385 -34 268 -157 521 -353 725 -194
203 -361 306 -679 421 -31 12 -41 22 -55 59 -65 169 -173 332 -312 470 -125
124 -223 194 -404 285 -205 105 -347 147 -587 175 -96 11 -345 5 -433 -10 -38
-6 -82 -13 -97 -15 l-28 -4 0 694 0 695 -590 0 c-465 0 -590 -3 -590 -12z
m1011 -1935 c0 -978 2 -1808 5 -1845 l5 -68 -63 27 c-356 153 -622 432 -733
768 -13 39 -26 91 -30 115 -4 25 -10 63 -14 85 -4 22 -8 638 -8 1368 l0 1327
418 0 419 0 1 -1777z m729 426 c64 -8 126 -20 248 -46 12 -3 23 -8 23 -12 1
-3 2 -180 3 -392 l2 -386 -56 45 c-67 55 -173 106 -260 126 -146 34 -337 0
-459 -82 l-61 -40 0 76 c-1 70 -1 487 0 622 l0 56 71 13 c39 7 94 15 123 18
28 3 52 6 53 7 8 7 249 3 313 -5z m543 -183 c231 -120 425 -305 533 -509 l35
-67 -73 7 c-150 16 -397 8 -518 -17 -25 -5 -51 -9 -57 -10 -10 0 -13 70 -13
320 0 176 2 320 4 320 3 0 43 -20 89 -44z m-608 -657 c193 -54 314 -205 294
-369 -30 -257 -354 -400 -609 -270 -58 30 -129 99 -156 152 -22 44 -26 63 -26
153 0 114 13 147 80 218 98 102 282 153 417 116z m1027 -73 c53 -3 103 -8 110
-11 7 -2 29 -6 49 -9 60 -9 67 -15 74 -64 3 -26 9 -63 12 -82 11 -67 9 -225
-3 -296 -17 -98 -31 -147 -65 -230 l-29 -70 -73 24 c-128 45 -317 34 -447 -26
-245 -111 -370 -382 -286 -619 l15 -42 -32 -10 c-58 -19 -171 -43 -262 -56
-84 -12 -355 -13 -415 -1 -14 3 -41 7 -61 10 -76 11 -86 20 -94 78 -4 29 -9
62 -11 73 -6 27 -7 665 -2 671 3 2 14 -5 26 -16 32 -30 131 -78 203 -97 101
-27 254 -23 352 11 231 78 376 266 381 494 2 78 -10 162 -27 178 -21 22 14 41
105 58 7 1 27 5 43 9 60 13 92 17 180 23 50 4 91 8 93 9 1 1 17 1 35 -1 17 -1
76 -5 129 -8z m538 -158 c265 -122 504 -359 619 -611 32 -70 73 -200 86 -272
11 -66 14 -265 4 -335 -32 -232 -152 -455 -348 -650 -182 -181 -478 -335 -721
-375 -19 -3 -42 -8 -50 -10 -108 -29 -414 -24 -575 10 -242 50 -487 165 -662
310 -104 86 -230 241 -291 355 -33 64 -37 74 -24 66 10 -6 190 -19 277 -19 74
-1 220 9 270 18 118 21 197 40 272 66 l87 29 18 -20 c39 -41 174 -112 243
-126 323 -69 624 82 714 356 51 153 11 311 -116 467 l-45 55 30 77 c69 177 86
273 86 503 1 183 -13 171 126 106z m-537 -740 c26 -5 47 -12 47 -15 0 -12 -91
-131 -134 -175 -25 -26 -79 -74 -120 -107 -78 -61 -245 -161 -270 -161 -9 0
-20 17 -27 43 -45 163 47 329 220 397 94 37 174 42 284 18z m263 -195 c18 -36
28 -76 32 -123 4 -64 2 -76 -26 -133 -38 -77 -85 -125 -160 -165 -128 -68
-275 -74 -399 -17 -56 25 -66 40 -33 50 11 4 68 38 126 76 124 82 269 218 345
324 50 70 54 74 71 58 10 -9 30 -40 44 -70z"/>
</g>
</svg>
