<svg width="195" height="100" viewBox="0 0 400 252" fill="none" xmlns="http://www.w3.org/2000/svg">
<path d="M104.656 123.641L100.429 125.015V117.556C99.853 116.771 99.0846 116.183 98.3161 115.594C92.9366 110.883 85.8281 108.135 78.3353 108.135C72.1873 108.135 66.0394 109.902 61.0442 113.435C60.2757 114.024 59.5073 114.416 58.7388 115.005V129.725C61.2364 122.267 69.1134 116.968 78.1432 116.968C89.2863 116.968 98.3161 124.819 98.3161 134.436C98.3161 144.053 89.2863 151.904 78.1432 151.904C69.1134 151.904 61.2364 146.605 58.7388 139.146V153.67C59.5073 154.259 60.0836 154.848 60.8521 155.437C66.0394 158.97 71.9953 160.736 78.1432 160.736C85.8281 160.736 92.9366 158.185 98.3161 153.278C103.888 148.175 106.962 141.502 106.962 134.436C107.346 130.707 106.385 126.978 104.656 123.641Z" fill="#B29F8F"/>
<path d="M52.8347 199.918L52.358 198.46C51.7806 196.343 51.3956 194.225 51.0106 192.108C46.5832 190.568 42.3484 188.45 38.1136 185.948C32.1463 182.098 26.949 177.671 22.5217 172.666C18.0943 167.469 14.6295 161.694 12.3196 155.727C10.0097 149.567 8.66217 142.83 8.66217 136.477V8.46967H50.4331V71.7998L51.8768 71.3185L53.3205 70.8373C55.2454 70.2598 57.1704 69.8748 58.9028 69.4899V0H0V136.67C0 143.985 1.34746 151.492 4.04236 159.191C6.54476 165.929 10.5871 172.473 15.7844 178.441C20.9817 184.408 26.949 189.413 33.4938 193.455C39.4611 197.113 46.1983 199.807 53.3205 201.925L53.128 200.962C53.128 200.962 53.0272 200.303 52.8347 199.918Z" fill="#E56D85"/>
<path d="M142.252 113.956C144.947 114.341 147.449 114.918 149.952 115.496L152.262 116.266L152.454 116.651C145.909 97.2089 129.932 81.232 108.758 73.1473V82.387C124.158 88.9317 136.092 100.289 142.252 113.956Z" fill="#8DC63F"/>
<path d="M201.925 159.384C199.423 152.647 195.38 146.102 190.183 140.135C184.986 134.168 179.018 129.163 172.474 125.12C166.506 121.463 159.769 118.768 152.647 116.458L153.224 118.383C153.417 118.961 153.417 119.346 153.609 119.923C154.187 122.04 154.572 124.158 154.957 126.275C159.577 128.008 163.811 129.933 167.854 132.435C173.821 136.285 179.018 140.712 183.446 145.717C187.873 150.914 191.338 156.689 193.648 162.656C195.958 168.816 197.305 175.553 197.305 181.906C197.305 190.183 195.573 197.883 191.915 205.197C188.451 212.32 183.446 218.864 177.093 224.447C170.549 230.221 163.041 234.649 154.957 237.536C139.557 243.311 122.233 244.081 104.716 238.884C97.5939 236.574 90.8567 233.494 84.8894 229.451C78.7296 225.217 73.7248 220.597 69.6825 215.014C66.9876 211.55 64.8702 207.892 63.1377 203.85C61.0203 203.465 59.0954 203.08 56.978 202.695C56.7855 202.695 56.593 202.695 56.4005 202.502C56.0155 202.502 55.823 202.31 55.438 202.31L53.4387 201.897C53.4807 202.016 53.2551 201.897 53.2551 201.897C55.5574 208.316 58.7874 214.539 62.9452 220.019C67.95 226.564 73.5323 231.761 80.0771 236.381C87.0068 241.001 94.3215 244.658 102.214 246.968C110.876 249.471 119.153 250.818 128.008 250.818C138.595 250.818 148.797 249.086 158.229 245.428C167.276 242.156 175.746 237.151 183.061 230.799C190.183 224.639 195.765 217.324 199.808 208.855C204.042 200.193 206.16 191.145 206.16 181.713C206.16 174.206 204.62 166.699 201.925 159.384Z" fill="#31C0E8"/>
<path d="M52.3582 198.075L52.7432 199.423C52.9357 199.808 52.9356 200.193 53.1281 200.578L52.7432 199.23C52.5507 198.845 52.3582 198.46 52.3582 198.075Z" fill="#31C0E8"/>
<path d="M129.355 156.497C121.656 156.497 114.533 158.999 109.144 163.812C103.561 168.816 100.481 175.361 100.481 182.291C100.481 185.756 101.251 189.221 102.791 192.3C103.176 192.108 103.754 191.916 104.139 191.916H104.524C104.524 191.916 104.716 191.723 104.909 191.723C105.871 191.338 106.834 190.953 107.796 190.568C108.374 190.376 108.951 190.183 109.529 189.798C109.914 189.606 110.299 189.413 110.684 189.221C109.529 187.103 108.951 184.793 108.951 182.483C108.951 172.859 117.806 165.159 129.163 165.159C132.05 165.159 134.938 165.737 137.44 166.699C137.825 166.314 138.018 165.736 138.403 165.352C139.557 163.619 140.52 162.079 141.29 160.539L141.867 159.577C141.867 159.577 141.867 159.384 142.06 159.384C138.018 157.459 133.783 156.497 129.355 156.497Z" fill="#D8765A"/>
<path d="M149.567 163.811C149.374 163.619 149.104 163.42 148.912 163.42C148.912 163.42 148.914 163.955 148.912 163.957C148.719 164.149 148.375 165.03 148.375 165.03C147.413 166.955 146.846 167.784 145.691 169.324C145.499 169.709 144.81 170.549 144.618 170.934C147.698 174.014 149.567 178.441 149.567 182.291C149.567 191.723 140.52 199.423 129.355 199.423C124.928 199.423 120.501 198.075 117.036 195.765C116.266 196.15 115.496 196.535 114.726 196.92L108.566 199.423H108.374L109.529 200.578C114.918 205.197 122.041 207.892 129.74 207.892C137.44 207.892 144.562 205.39 149.952 200.578C155.534 195.573 158.614 189.028 158.614 182.098C158.037 175.169 154.957 168.816 149.567 163.811Z" fill="#AEA2CF"/>
<path d="M154.957 126.275C154.572 124.158 154.187 122.04 153.61 119.923C153.417 119.345 153.417 118.96 153.225 118.383L152.647 116.458L152.455 116.073L150.145 115.303C147.642 114.726 144.947 114.148 142.445 113.763C137.633 112.993 133.013 112.608 128.201 112.608C121.656 112.608 115.304 113.378 109.144 114.726V82.1943V72.9547L107.604 72.3772L106.256 71.9922C105.871 71.7997 105.486 71.7997 105.102 71.6072C90.2796 66.7949 74.3027 66.0249 58.9033 69.2973C56.9783 69.6823 55.0534 70.2597 53.321 70.6447L50.4336 71.6072V129.163V129.932V141.29V142.06V182.098C50.4336 185.563 50.6261 188.835 51.011 192.108C51.396 194.225 51.781 196.342 52.3585 198.46C52.4824 198.914 52.8348 199.918 52.8348 199.918L53.321 201.925L55.6309 202.695C56.0159 202.695 56.5934 202.887 56.5934 202.887L57.1708 203.08C59.2883 203.465 61.2132 204.042 63.3306 204.235C68.1429 205.005 72.9553 205.39 77.5751 205.39C88.1622 205.39 98.3643 203.657 107.796 200C107.989 200 107.989 199.807 107.989 199.807H108.181L114.341 197.305C115.111 196.92 115.881 196.535 116.651 196.15C122.041 193.263 127.238 189.99 132.243 185.755C137.055 181.328 141.29 176.708 144.37 171.703C144.563 171.318 144.948 170.933 145.14 170.548C146.295 169.009 147.257 167.276 148.22 165.351L148.605 164.581L148.912 163.957L148.99 163.811C153.225 155.149 155.342 146.102 155.342 136.862C155.727 133.012 155.535 129.74 154.957 126.275ZM127.046 178.633C122.233 182.868 116.651 186.333 110.876 189.028C110.491 189.22 110.106 189.413 109.721 189.605C109.144 189.798 108.566 189.99 107.989 190.375C107.026 190.76 106.064 191.338 105.102 191.53C104.909 191.53 104.717 191.723 104.717 191.723H104.332C103.947 191.915 103.369 192.108 102.984 192.108C94.8994 194.803 86.4298 196.15 77.7676 196.15C72.3778 196.15 66.4105 195.572 60.2507 194.225C59.2883 189.99 58.7108 185.563 58.7108 181.521V153.994V139.75V130.51V116.073V77.5745C64.678 76.0345 71.0303 75.2646 77.7676 75.2646C85.4673 75.2646 93.167 76.4195 100.482 78.5369V118.383V125.698L104.717 124.35L106.064 123.965C113.379 121.848 120.886 120.885 128.201 120.885C133.59 120.885 139.558 121.463 145.717 122.81C146.68 127.045 147.257 131.472 147.257 135.515C147.45 143.599 145.936 150.738 142.471 158.052L142.06 158.806L141.483 159.769C141.117 160.5 140.751 161.058 140.324 161.81C139.851 162.641 139.303 163.671 138.595 164.581C138.21 164.966 138.018 165.544 137.633 165.929C134.553 170.933 131.281 174.976 127.046 178.633Z" fill="#DBAE2E"/>
<path d="M258.325 123.003C252.935 123.003 249.086 125.313 247.161 127.623V110.106H237.344V152.262C237.344 152.262 242.733 161.694 257.363 161.502C270.837 161.502 276.805 153.032 276.805 142.252C276.805 131.665 269.875 123.003 258.325 123.003ZM256.978 152.647C250.626 152.647 246.776 148.797 246.776 142.252C246.776 136.093 250.626 131.858 256.978 131.858C263.523 131.858 267.18 136.285 267.18 142.252C267.18 148.027 263.138 152.647 256.978 152.647Z" fill="#434345"/>
<path d="M309.913 128.008C308.181 125.505 304.139 123.388 298.749 123.388C287.007 123.388 280.27 131.858 280.27 142.637C280.27 153.032 287.199 161.886 298.749 161.886C303.946 161.886 308.181 159.384 309.913 157.459V160.924H319.731V124.35H309.913V128.008ZM300.289 152.647C294.129 152.647 290.087 148.219 290.087 142.252C290.087 136.092 293.936 131.858 300.289 131.858C306.641 131.858 310.491 136.285 310.491 142.252C310.298 148.604 306.448 152.647 300.289 152.647Z" fill="#434345"/>
<path d="M343.793 147.45L334.36 123.966H322.811L338.595 159.384L332.435 174.399H343.215L364.004 123.966H352.262L343.793 147.45Z" fill="#434345"/>
<path d="M332.243 174.59L332.434 174.398H332.243V174.59Z" fill="#434345"/>
<path d="M232.531 56.7855C235.419 56.7855 237.921 54.2831 237.921 51.3957C237.921 48.5083 235.419 46.006 232.531 46.006C229.452 46.006 226.949 48.5083 226.949 51.3957C226.757 54.2831 229.452 56.7855 232.531 56.7855Z" fill="#434345"/>
<path d="M237.344 60.8278H227.334V97.5939H237.344V60.8278Z" fill="#434345"/>
<path d="M246.006 89.3169C246.006 97.0166 250.818 98.5566 258.518 98.5566C260.058 98.5566 261.983 98.3641 262.945 98.1716V89.7019C262.368 89.8944 261.405 89.8944 260.443 89.8944C256.015 89.8944 256.015 86.4295 256.015 84.5046H255.823V68.9127H263.33V60.2505H255.823V50.4334H246.006V60.2505H241.578V68.9127H246.006V89.3169Z" fill="#434345"/>
<path d="M265 79.24C265 68.658 274.043 60 285.01 60C292.706 60 299.44 63.848 303.095 70.7744L294.052 74.2376C291.744 70.582 288.665 68.8504 285.01 68.8504C279.238 68.8504 275.005 73.2756 275.005 79.24C275.005 85.2044 279.43 89.6297 285.202 89.6297C288.665 89.6297 292.128 88.0904 294.63 84.2424L303.095 87.7056C299.632 95.0169 293.668 98.4801 285.394 98.4801C274.043 98.2877 265 89.6296 265 79.24Z" fill="#434345"/>
<path d="M325.698 98.3639C336.862 98.3639 345.909 89.8942 345.909 79.1146C345.909 68.72 336.67 59.8654 325.698 59.8654C314.726 59.8654 305.678 68.5275 305.678 79.1146C305.678 89.8942 314.726 98.3639 325.698 98.3639ZM325.89 68.9125C331.665 68.9125 336.092 73.3398 336.092 79.3071C336.092 85.2744 331.665 89.7017 325.89 89.7017C320.115 89.7017 315.688 85.2744 315.688 79.3071C315.688 73.3398 320.115 68.9125 325.89 68.9125Z" fill="#434345"/>
<path d="M354.957 56.7855C358.037 56.7855 360.347 54.2831 360.347 51.3957C360.347 48.5083 357.844 46.006 354.957 46.006C352.07 46.006 349.375 48.5083 349.375 51.3957C349.182 54.2831 351.877 56.7855 354.957 56.7855Z" fill="#434345"/>
<path d="M359.961 60.8278H349.952V97.5939H359.961V60.8278Z" fill="#434345"/>
<path d="M385.178 59.8654C381.906 59.8654 377.671 61.4053 375.361 63.9077V60.6353H365.351V97.5939H375.361V78.1522C375.168 70.0675 379.788 68.5275 382.483 68.5275C386.333 68.5275 389.605 70.26 389.605 76.0347V97.7864H400V76.0347C399.807 66.2176 395.958 60.0578 385.178 59.8654Z" fill="#434345"/>
<path d="M204.042 59.8654C198.653 59.8654 194.803 62.1753 192.878 64.4852V46.9684H183.061V88.9318C183.061 88.9318 188.451 98.364 203.08 98.364C216.554 98.364 222.522 89.8943 222.522 79.1147C222.714 68.5276 215.784 59.8654 204.042 59.8654ZM202.695 89.5093C196.343 89.5093 192.493 85.6594 192.493 79.1147C192.493 72.9549 196.343 68.7201 202.695 68.7201C209.24 68.7201 212.897 73.1474 212.897 79.1147C212.897 85.082 208.855 89.5093 202.695 89.5093Z" fill="#434345"/>
</svg>
